<svg width="1920" height="6108" viewBox="0 0 1920 6108" fill="none" preserveAspectRatio="none"
    xmlns="http://www.w3.org/2000/svg">

    <g filter="url(#filter2_i_149_16)">
        <path
            d="M2160.1 3177.5C2160.1 3670.02 3235.63 4584.23 2295.1 4584.23C1761.84 4584.23 355.074 5514.99 -227.366 5194.25C-672.195 4949.3 -673.398 4002.91 -673.398 3789.64C-673.398 3491.37 -757.6 2387 -343.5 2528C70.6003 2669 550.07 2246 1490.6 2246C2431.13 2246 2160.1 2684.98 2160.1 3177.5Z"
            fill="url(#paint2_linear_149_16)" />
        <path d="M0 3000L0 6108L1920 6108L1920 3200L1500 3250L600 3250Z" fill="url(#paint2_linear_149_16)"/>

    </g>

    <defs>
        <filter id="filter2_i_149_16" x="-680.436" y="2246" width="3361.21" height="3870"
            filterUnits="userSpaceOnUse" color-interpolation-filters="sRGB">
            <feFlood flood-opacity="0" result="BackgroundImageFix" />
            <feBlend mode="normal" in="SourceGraphic" in2="BackgroundImageFix" result="shape" />
            <feColorMatrix in="SourceAlpha" type="matrix"
                values="0 0 0 0 0 0 0 0 0 0 0 0 0 0 0 0 0 0 127 0" result="hardAlpha" />
            <feOffset dy="6" />
            <feGaussianBlur stdDeviation="20" />
            <feComposite in2="hardAlpha" operator="arithmetic" k2="-1" k3="1" />
            <feColorMatrix type="matrix" values="0 0 0 0 0 0 0 0 0 0 0 0 0 0 0 0 0 0 0.25 0" />
            <feBlend mode="normal" in2="shape" result="effect1_innerShadow_149_16" />
        </filter>
        <linearGradient id="paint2_linear_149_16" x1="483.664" y1="3237.11" x2="2934.13"
            y2="5022.36" gradientUnits="userSpaceOnUse">
            <stop stop-color="#304CAE" />
            <stop offset="1" stop-color="#401D88" />
        </linearGradient>
    </defs>
</svg>