<svg id="svg" version="1.1" xmlns="http://www.w3.org/2000/svg" xmlns:xlink="http://www.w3.org/1999/xlink" width="400" height="533.9774557165862" viewBox="0, 0, 400,533.9774557165862"><g id="svgg"><path id="path0" d="M223.600 0.906 C 224.590 1.397,225.490 1.890,225.600 2.000 C 225.710 2.110,227.150 2.880,228.800 3.711 C 232.484 5.566,234.935 6.920,235.200 7.246 C 235.310 7.381,235.850 7.633,236.400 7.805 C 236.950 7.976,238.071 8.541,238.892 9.058 C 239.713 9.576,240.568 10.000,240.792 10.000 C 241.016 10.000,241.200 10.180,241.200 10.400 C 241.200 10.620,241.432 10.800,241.715 10.800 C 242.157 10.800,250.635 16.157,251.200 16.793 C 251.310 16.917,251.917 17.348,252.549 17.751 C 253.747 18.514,255.195 19.772,259.509 23.800 C 262.336 26.440,266.133 31.863,266.579 33.900 C 266.735 34.615,267.009 35.200,267.186 35.200 C 268.458 35.200,269.181 51.870,267.943 52.635 C 267.754 52.752,267.600 53.636,267.600 54.600 C 267.600 55.564,267.436 56.454,267.236 56.578 C 267.035 56.702,266.744 58.335,266.588 60.207 C 266.432 62.080,266.146 63.710,265.952 63.830 C 265.252 64.262,265.538 73.333,266.300 74.858 C 267.224 76.706,268.435 78.180,269.300 78.509 C 269.685 78.655,270.000 78.961,270.000 79.187 C 270.000 79.414,270.315 79.601,270.700 79.602 C 271.085 79.604,271.916 79.874,272.546 80.202 C 273.176 80.531,274.031 80.800,274.446 80.800 C 274.861 80.800,275.200 80.960,275.200 81.155 C 275.200 81.350,276.055 81.637,277.100 81.794 C 278.145 81.950,279.180 82.195,279.400 82.337 C 279.784 82.586,282.880 83.375,285.400 83.867 C 286.060 83.995,286.780 84.238,287.000 84.405 C 287.220 84.573,288.164 84.836,289.098 84.990 C 290.032 85.144,290.897 85.434,291.022 85.635 C 291.146 85.836,291.579 86.000,291.984 86.000 C 292.724 86.000,298.164 88.631,299.230 89.505 C 302.232 91.966,303.167 92.965,304.682 95.329 C 305.644 96.829,306.540 98.629,306.672 99.329 C 306.804 100.028,307.058 100.788,307.237 101.017 C 307.415 101.247,307.684 102.687,307.834 104.217 C 307.984 105.748,308.278 107.216,308.487 107.481 C 308.706 107.759,308.916 114.503,308.985 123.481 C 309.102 138.666,309.654 149.674,310.342 150.557 C 310.532 150.801,310.793 151.560,310.922 152.243 C 311.834 157.066,317.368 164.191,321.688 166.103 C 322.300 166.374,322.800 166.731,322.800 166.898 C 322.800 167.064,323.120 167.200,323.511 167.200 C 323.902 167.200,324.577 167.435,325.011 167.723 C 325.445 168.011,326.880 168.589,328.200 169.007 C 329.520 169.425,330.792 169.905,331.026 170.072 C 331.261 170.239,332.481 170.497,333.738 170.644 C 334.994 170.792,336.118 171.067,336.235 171.256 C 336.352 171.445,337.236 171.600,338.200 171.600 C 339.164 171.600,340.050 171.757,340.168 171.948 C 340.286 172.139,342.215 172.426,344.455 172.584 C 346.695 172.743,348.814 173.024,349.164 173.208 C 349.747 173.514,355.250 174.096,362.800 174.650 C 364.450 174.770,365.980 175.014,366.200 175.190 C 366.420 175.367,368.490 175.642,370.800 175.801 C 373.110 175.960,375.180 176.205,375.400 176.345 C 375.814 176.609,382.418 177.429,387.500 177.848 C 389.095 177.980,390.400 178.223,390.400 178.389 C 390.400 178.555,392.335 178.820,394.699 178.979 C 397.064 179.137,399.224 179.454,399.499 179.682 C 399.900 180.015,400.000 162.114,400.000 90.049 L 400.000 0.000 310.900 0.006 L 221.800 0.011 223.600 0.906 M0.000 266.766 C 0.000 365.345,0.102 446.000,0.227 446.000 C 0.432 446.000,3.121 444.088,3.600 443.601 C 3.710 443.489,4.880 442.588,6.199 441.599 C 7.519 440.610,9.047 439.395,9.595 438.900 C 10.143 438.405,10.701 438.000,10.834 438.000 C 10.967 438.000,11.599 437.538,12.238 436.973 C 12.877 436.408,14.480 435.111,15.800 434.091 C 17.120 433.072,18.290 432.134,18.400 432.008 C 18.510 431.882,19.409 431.154,20.399 430.390 C 22.127 429.054,23.607 427.847,24.553 427.000 C 24.799 426.780,25.720 425.995,26.600 425.255 C 29.906 422.476,34.604 418.113,36.961 415.632 C 38.302 414.220,40.390 412.040,41.600 410.788 C 42.810 409.536,44.302 407.903,44.915 407.160 C 46.674 405.030,50.331 401.330,52.499 399.487 C 53.591 398.559,54.853 397.485,55.303 397.100 C 55.754 396.715,56.365 396.400,56.661 396.400 C 56.958 396.400,57.200 396.248,57.200 396.063 C 57.200 395.878,57.875 395.383,58.700 394.963 C 59.525 394.543,60.290 394.095,60.400 393.967 C 60.510 393.839,61.590 393.409,62.800 393.012 C 64.010 392.615,65.433 392.090,65.961 391.845 C 67.291 391.230,85.134 391.237,86.439 391.854 C 87.277 392.250,89.010 392.528,96.600 393.488 C 97.480 393.599,98.380 393.829,98.600 393.998 C 98.820 394.168,101.115 394.435,103.701 394.593 C 106.286 394.750,108.502 395.041,108.624 395.240 C 108.909 395.700,121.481 395.716,121.765 395.256 C 121.882 395.067,122.932 394.801,124.099 394.663 C 125.266 394.526,127.161 393.961,128.309 393.407 C 129.457 392.853,130.577 392.400,130.798 392.400 C 131.019 392.400,131.200 392.232,131.200 392.027 C 131.200 391.822,131.548 391.543,131.974 391.408 C 135.850 390.178,144.000 376.825,144.000 371.705 C 144.000 371.295,144.171 370.789,144.380 370.580 C 145.887 369.072,145.872 345.019,144.364 344.467 C 144.164 344.393,144.000 343.639,144.000 342.790 C 144.000 341.942,143.828 341.141,143.618 341.011 C 143.409 340.882,143.115 339.697,142.966 338.379 C 142.817 337.061,142.551 335.893,142.375 335.785 C 142.200 335.676,141.932 334.598,141.781 333.388 C 141.630 332.179,141.348 331.091,141.153 330.971 C 140.959 330.851,140.800 330.234,140.800 329.600 C 140.800 328.966,140.644 328.351,140.453 328.233 C 140.262 328.114,139.980 326.913,139.828 325.563 C 139.675 324.214,139.397 322.815,139.210 322.455 C 137.787 319.715,137.788 308.737,139.212 305.400 C 139.400 304.960,139.677 303.973,139.829 303.206 C 139.981 302.439,140.383 301.359,140.722 300.806 C 142.672 297.628,144.193 295.383,144.477 295.267 C 144.655 295.193,144.800 294.921,144.800 294.661 C 144.800 294.149,150.838 287.837,153.413 285.657 C 160.444 279.706,161.081 279.200,161.553 279.200 C 161.799 279.200,162.000 279.059,162.000 278.886 C 162.000 278.714,162.585 278.233,163.300 277.818 C 164.015 277.402,164.744 276.823,164.920 276.531 C 165.096 276.239,165.430 276.000,165.662 276.000 C 165.894 276.000,166.589 275.595,167.206 275.100 C 169.554 273.217,170.177 272.800,170.648 272.800 C 170.915 272.800,171.193 272.648,171.267 272.462 C 171.386 272.159,174.705 269.743,177.529 267.902 C 178.594 267.208,178.582 267.204,175.300 267.202 C 173.368 267.201,172.000 267.034,172.000 266.800 C 172.000 266.568,173.300 266.400,175.099 266.400 L 178.197 266.400 176.199 265.011 C 175.099 264.247,173.983 263.437,173.717 263.211 C 173.451 262.985,173.142 262.800,173.031 262.800 C 172.730 262.800,158.559 252.502,157.352 251.407 C 157.106 251.183,155.936 250.191,154.752 249.201 C 151.813 246.745,144.800 239.678,144.800 239.173 C 144.800 238.948,144.350 238.314,143.800 237.764 C 143.250 237.214,142.800 236.502,142.800 236.182 C 142.800 235.862,142.661 235.600,142.491 235.600 C 142.131 235.600,139.600 230.744,139.600 230.054 C 139.600 229.798,139.435 229.277,139.233 228.895 C 138.463 227.436,137.899 222.445,138.133 219.158 C 138.475 214.348,138.855 211.461,139.206 211.000 C 139.374 210.780,139.639 209.475,139.795 208.099 C 139.951 206.724,140.241 205.498,140.439 205.376 C 140.638 205.253,140.800 204.634,140.800 204.000 C 140.800 203.366,140.959 202.749,141.153 202.629 C 141.348 202.509,141.630 201.421,141.781 200.212 C 141.932 199.002,142.200 197.924,142.375 197.815 C 142.551 197.707,142.817 196.539,142.966 195.221 C 143.115 193.903,143.409 192.718,143.618 192.589 C 143.828 192.459,144.000 191.658,144.000 190.810 C 144.000 189.961,144.170 189.207,144.377 189.133 C 144.585 189.060,144.872 186.660,145.016 183.800 C 145.160 180.940,145.451 177.911,145.662 177.069 C 145.899 176.129,145.905 175.358,145.677 175.069 C 145.473 174.811,145.205 172.191,145.080 169.247 C 144.955 166.302,144.661 163.701,144.427 163.467 C 144.192 163.232,144.000 162.547,144.000 161.944 C 144.000 161.341,143.841 160.749,143.646 160.629 C 143.452 160.508,143.171 159.602,143.023 158.614 C 142.875 157.627,142.605 156.726,142.422 156.614 C 142.240 156.501,141.972 155.777,141.827 155.004 C 141.682 154.232,141.432 153.600,141.272 153.600 C 141.111 153.600,140.624 152.792,140.190 151.804 C 139.755 150.816,139.265 150.006,139.100 150.004 C 138.935 150.002,138.800 149.801,138.800 149.558 C 138.800 147.900,133.291 142.778,129.400 140.818 C 125.115 138.659,110.471 136.900,108.666 138.327 C 108.410 138.529,106.134 138.821,103.608 138.975 C 101.083 139.129,98.833 139.400,98.608 139.578 C 98.384 139.756,97.210 140.006,96.000 140.133 C 94.790 140.259,92.000 140.642,89.800 140.983 C 80.929 142.357,79.545 142.466,72.897 142.313 C 68.280 142.207,65.836 141.996,65.517 141.677 C 65.255 141.415,64.692 141.200,64.266 141.200 C 63.144 141.200,56.755 138.000,55.719 136.919 C 55.235 136.414,54.675 136.000,54.476 136.000 C 53.989 136.000,47.589 129.647,44.600 126.197 C 42.112 123.324,32.921 114.051,30.134 111.600 C 29.258 110.830,27.565 109.390,26.371 108.400 C 25.177 107.410,23.614 106.060,22.898 105.400 C 20.780 103.448,20.455 103.200,20.017 103.200 C 19.788 103.200,19.600 103.061,19.600 102.891 C 19.600 102.722,18.312 101.597,16.738 100.391 C 15.164 99.186,13.583 97.930,13.224 97.600 C 12.865 97.270,11.498 96.190,10.186 95.200 C 8.874 94.210,7.562 93.175,7.271 92.900 C 6.981 92.625,6.619 92.400,6.467 92.400 C 6.316 92.400,5.744 91.992,5.196 91.493 C 4.648 90.995,3.255 89.900,2.100 89.059 L 0.000 87.532 0.000 266.766 M399.427 353.956 C 399.306 354.152,397.226 354.442,394.804 354.600 C 392.382 354.758,390.400 355.027,390.400 355.197 C 390.400 355.367,389.275 355.619,387.900 355.756 C 378.871 356.656,375.752 357.031,375.400 357.258 C 375.180 357.399,373.062 357.646,370.694 357.806 C 368.325 357.966,366.290 358.255,366.170 358.448 C 366.051 358.642,365.075 358.800,364.002 358.800 C 362.930 358.800,361.592 358.975,361.030 359.189 C 360.468 359.402,357.846 359.699,355.204 359.849 C 352.562 359.998,350.400 360.247,350.400 360.401 C 350.400 360.556,348.484 360.806,346.143 360.957 C 343.802 361.109,341.564 361.405,341.170 361.616 C 340.775 361.827,339.821 362.000,339.050 362.000 C 338.278 362.000,337.545 362.165,337.421 362.366 C 337.296 362.567,335.846 362.859,334.197 363.013 C 332.549 363.168,331.200 363.453,331.200 363.647 C 331.200 363.841,330.846 364.000,330.414 364.000 C 329.644 364.000,327.660 364.753,325.538 365.851 C 324.954 366.153,324.114 366.400,323.672 366.400 C 323.229 366.400,322.807 366.539,322.733 366.710 C 322.660 366.880,321.430 367.808,320.000 368.772 C 316.523 371.116,313.418 374.392,312.966 376.192 C 312.827 376.746,312.574 377.200,312.403 377.200 C 312.233 377.200,312.001 377.605,311.887 378.100 C 311.681 379.002,310.966 381.099,310.354 382.600 C 309.599 384.451,309.039 394.021,308.784 409.400 C 308.533 424.545,308.062 431.519,307.217 432.600 C 307.045 432.820,306.789 433.643,306.647 434.430 C 306.506 435.216,306.076 436.206,305.692 436.630 C 305.308 437.053,304.771 437.902,304.499 438.516 C 303.858 439.958,300.453 443.600,299.745 443.600 C 299.445 443.600,299.200 443.765,299.200 443.967 C 299.200 444.286,295.809 446.042,292.800 447.282 C 292.250 447.508,291.523 447.830,291.185 447.997 C 290.846 448.164,289.773 448.436,288.800 448.600 C 287.827 448.764,286.754 449.035,286.415 449.200 C 285.463 449.667,283.157 450.352,280.979 450.816 C 279.891 451.048,278.190 451.411,277.200 451.622 C 276.210 451.834,274.450 452.456,273.289 453.004 C 272.128 453.552,270.995 454.000,270.772 454.000 C 269.851 454.000,267.341 456.611,266.375 458.575 C 265.544 460.263,265.203 469.307,265.952 469.770 C 266.146 469.890,266.432 471.520,266.588 473.393 C 266.744 475.265,267.035 476.898,267.236 477.022 C 267.436 477.146,267.600 478.101,267.600 479.144 C 267.600 480.187,267.800 481.240,268.045 481.485 C 268.330 481.770,268.502 484.139,268.524 488.065 C 268.557 493.885,268.388 495.149,267.170 498.200 C 266.994 498.640,266.729 499.431,266.580 499.957 C 266.257 501.101,264.587 503.788,262.752 506.113 C 260.769 508.628,253.987 515.200,253.377 515.200 C 253.248 515.200,252.892 515.425,252.585 515.700 C 251.897 516.317,251.152 516.876,250.322 517.400 C 249.973 517.620,248.147 518.835,246.264 520.100 C 244.382 521.365,242.665 522.400,242.450 522.400 C 242.234 522.400,241.818 522.625,241.525 522.900 C 241.233 523.175,239.735 524.030,238.197 524.800 C 236.659 525.570,235.310 526.290,235.200 526.400 C 234.895 526.705,232.134 528.210,228.800 529.889 C 227.150 530.720,225.710 531.490,225.600 531.600 C 225.490 531.710,224.590 532.203,223.600 532.694 L 221.800 533.589 310.900 533.594 L 400.000 533.600 400.000 443.600 C 400.000 394.100,399.921 353.600,399.824 353.600 C 399.727 353.600,399.548 353.760,399.427 353.956 " stroke="none" fill="#232434" fill-rule="evenodd"></path><path id="path1" d="M0.019 43.300 L 0.038 86.600 2.282 88.200 C 3.516 89.080,4.722 89.982,4.963 90.203 C 5.203 90.425,7.200 91.952,9.400 93.596 C 11.600 95.240,13.490 96.683,13.600 96.803 C 13.710 96.923,14.609 97.646,15.599 98.410 C 17.937 100.217,17.889 100.177,25.600 106.698 C 33.034 112.985,40.210 119.966,46.363 126.899 C 58.935 141.064,67.403 143.922,87.000 140.613 C 116.819 135.578,126.746 136.244,135.147 143.847 C 137.165 145.674,141.200 150.937,141.200 151.743 C 141.200 151.872,141.633 152.928,142.161 154.089 C 146.486 163.587,147.604 178.702,144.864 190.604 C 144.186 193.546,142.959 198.587,142.090 202.000 C 141.669 203.650,141.017 206.440,140.639 208.200 C 140.262 209.960,139.759 212.169,139.522 213.110 C 138.790 216.013,138.943 225.446,139.764 228.000 C 143.096 238.369,153.159 248.482,174.200 262.608 C 181.306 267.378,181.440 266.326,173.000 272.062 C 164.777 277.652,163.003 278.922,159.200 281.949 C 139.657 297.501,135.833 307.323,141.271 328.000 C 141.705 329.650,142.208 331.720,142.390 332.600 C 142.571 333.480,143.076 335.550,143.511 337.200 C 144.215 339.871,144.601 341.836,146.022 349.967 C 148.138 362.083,144.524 378.403,137.837 386.930 C 130.148 396.734,120.079 398.284,93.000 393.829 C 76.388 391.097,69.479 391.176,62.107 394.183 C 56.658 396.407,55.118 397.766,38.272 415.227 C 30.862 422.907,28.927 424.628,16.800 434.324 C 14.490 436.170,12.240 437.981,11.800 438.348 C 8.816 440.833,0.792 446.800,0.435 446.800 C 0.124 446.800,0.000 459.192,0.000 490.200 L 0.000 533.600 109.948 533.600 L 219.896 533.600 223.048 531.962 C 231.560 527.537,236.337 524.984,237.692 524.135 C 238.513 523.621,239.280 523.200,239.396 523.200 C 239.904 523.200,248.516 517.656,251.800 515.214 C 266.291 504.442,269.993 495.490,266.776 479.000 C 266.420 477.177,266.206 475.932,265.190 469.800 C 263.184 457.694,266.123 453.748,279.800 450.183 C 291.722 447.075,291.180 447.247,295.293 445.272 C 306.227 440.021,307.929 434.892,308.387 405.800 C 308.709 385.419,308.940 383.250,311.413 377.409 C 315.255 368.336,326.618 362.470,344.400 360.380 C 353.894 359.264,361.907 358.261,368.000 357.425 C 370.530 357.078,374.760 356.527,377.400 356.202 C 382.133 355.617,384.125 355.347,392.400 354.165 C 394.710 353.836,397.365 353.460,398.300 353.331 L 400.000 353.096 400.000 266.800 L 400.000 180.504 398.300 180.270 C 397.365 180.141,394.530 179.745,392.000 179.390 C 389.470 179.035,386.140 178.589,384.600 178.400 C 383.060 178.211,379.730 177.766,377.200 177.413 C 372.317 176.730,365.080 175.812,359.800 175.207 C 356.917 174.876,350.274 174.086,343.200 173.233 C 339.596 172.798,331.677 171.138,329.400 170.340 C 316.949 165.976,311.025 159.539,309.166 148.355 C 308.866 146.555,308.569 138.520,308.405 127.800 C 308.069 105.805,307.399 100.977,303.931 95.512 C 302.812 93.750,298.579 89.607,297.892 89.602 C 297.723 89.601,296.913 89.180,296.092 88.667 C 294.126 87.438,289.637 85.876,283.765 84.380 C 281.144 83.713,278.460 82.997,277.800 82.790 C 272.284 81.063,270.826 80.489,269.238 79.422 C 264.355 76.140,263.691 71.503,266.199 58.200 C 269.127 42.677,268.306 36.211,262.393 28.200 C 258.498 22.923,247.870 14.799,237.800 9.401 C 234.356 7.556,227.577 3.986,223.447 1.843 L 219.895 -0.000 109.947 -0.000 L 0.000 0.000 0.019 43.300 " stroke="none" fill="#041424" fill-rule="evenodd"></path><path id="path2" d="M265.293 64.800 C 265.293 65.570,265.375 65.885,265.476 65.500 C 265.576 65.115,265.576 64.485,265.476 64.100 C 265.375 63.715,265.293 64.030,265.293 64.800 M264.893 68.000 C 264.893 68.770,264.975 69.085,265.076 68.700 C 265.176 68.315,265.176 67.685,265.076 67.300 C 264.975 66.915,264.893 67.230,264.893 68.000 M308.581 126.200 C 308.580 134.120,308.634 137.417,308.699 133.526 C 308.765 129.635,308.765 123.155,308.700 119.126 C 308.634 115.097,308.581 118.280,308.581 126.200 M32.800 113.310 C 32.800 113.371,34.195 114.766,35.900 116.410 L 39.000 119.400 36.010 116.300 C 33.233 113.421,32.800 113.017,32.800 113.310 M40.600 121.200 C 41.459 122.080,42.252 122.800,42.362 122.800 C 42.472 122.800,41.859 122.080,41.000 121.200 C 40.141 120.320,39.348 119.600,39.238 119.600 C 39.128 119.600,39.741 120.320,40.600 121.200 M48.000 129.400 C 48.746 130.170,49.447 130.800,49.557 130.800 C 49.667 130.800,49.146 130.170,48.400 129.400 C 47.654 128.630,46.953 128.000,46.843 128.000 C 46.733 128.000,47.254 128.630,48.000 129.400 M109.091 137.889 C 109.801 137.977,111.061 137.979,111.891 137.892 C 112.721 137.805,112.140 137.733,110.600 137.731 C 109.060 137.729,108.381 137.800,109.091 137.889 M118.100 137.887 C 118.705 137.978,119.695 137.978,120.300 137.887 C 120.905 137.795,120.410 137.720,119.200 137.720 C 117.990 137.720,117.495 137.795,118.100 137.887 M79.300 141.876 C 79.685 141.976,80.315 141.976,80.700 141.876 C 81.085 141.775,80.770 141.693,80.000 141.693 C 79.230 141.693,78.915 141.775,79.300 141.876 M71.900 142.295 C 73.055 142.376,74.945 142.376,76.100 142.295 C 77.255 142.214,76.310 142.148,74.000 142.148 C 71.690 142.148,70.745 142.214,71.900 142.295 M308.893 144.000 C 308.893 144.770,308.975 145.085,309.076 144.700 C 309.176 144.315,309.176 143.685,309.076 143.300 C 308.975 142.915,308.893 143.230,308.893 144.000 M318.367 164.545 C 318.900 165.201,320.400 166.193,320.400 165.889 C 320.400 165.813,319.815 165.322,319.100 164.799 C 318.296 164.210,318.016 164.113,318.367 164.545 M350.100 173.876 C 350.485 173.976,351.115 173.976,351.500 173.876 C 351.885 173.775,351.570 173.693,350.800 173.693 C 350.030 173.693,349.715 173.775,350.100 173.876 M359.905 175.083 C 360.402 175.179,361.122 175.175,361.505 175.075 C 361.887 174.975,361.480 174.896,360.600 174.901 C 359.720 174.905,359.407 174.987,359.905 175.083 M376.100 177.076 C 376.485 177.176,377.115 177.176,377.500 177.076 C 377.885 176.975,377.570 176.893,376.800 176.893 C 376.030 176.893,375.715 176.975,376.100 177.076 M384.705 178.283 C 385.202 178.379,385.922 178.375,386.305 178.275 C 386.687 178.175,386.280 178.096,385.400 178.101 C 384.520 178.105,384.207 178.187,384.705 178.283 M138.514 218.200 C 138.517 219.300,138.595 219.703,138.687 219.095 C 138.779 218.486,138.777 217.586,138.682 217.095 C 138.587 216.603,138.511 217.100,138.514 218.200 M138.493 223.200 C 138.493 223.970,138.575 224.285,138.676 223.900 C 138.776 223.515,138.776 222.885,138.676 222.500 C 138.575 222.115,138.493 222.430,138.493 223.200 M152.400 246.600 C 153.146 247.370,153.847 248.000,153.957 248.000 C 154.067 248.000,153.546 247.370,152.800 246.600 C 152.054 245.830,151.353 245.200,151.243 245.200 C 151.133 245.200,151.654 245.830,152.400 246.600 M154.778 285.100 L 153.400 286.600 154.900 285.222 C 156.296 283.938,156.584 283.600,156.278 283.600 C 156.212 283.600,155.537 284.275,154.778 285.100 M149.789 289.700 L 147.000 292.600 149.900 289.811 C 152.594 287.220,152.983 286.800,152.689 286.800 C 152.628 286.800,151.323 288.105,149.789 289.700 M138.542 313.000 C 138.541 314.980,138.608 315.840,138.692 314.912 C 138.776 313.984,138.777 312.364,138.695 311.312 C 138.612 310.260,138.543 311.020,138.542 313.000 M144.880 345.800 C 144.880 346.240,145.024 347.050,145.200 347.600 C 145.454 348.392,145.520 348.433,145.520 347.800 C 145.520 347.360,145.376 346.550,145.200 346.000 C 144.946 345.208,144.880 345.167,144.880 345.800 M146.142 357.800 C 146.141 359.780,146.208 360.640,146.292 359.712 C 146.376 358.784,146.377 357.164,146.295 356.112 C 146.212 355.060,146.143 355.820,146.142 357.800 M385.300 355.476 C 385.685 355.576,386.315 355.576,386.700 355.476 C 387.085 355.375,386.770 355.293,386.000 355.293 C 385.230 355.293,384.915 355.375,385.300 355.476 M376.100 356.676 C 376.485 356.776,377.115 356.776,377.500 356.676 C 377.885 356.575,377.570 356.493,376.800 356.493 C 376.030 356.493,375.715 356.575,376.100 356.676 M360.900 358.676 C 361.285 358.776,361.915 358.776,362.300 358.676 C 362.685 358.575,362.370 358.493,361.600 358.493 C 360.830 358.493,360.515 358.575,360.900 358.676 M351.505 359.883 C 352.002 359.979,352.722 359.975,353.105 359.875 C 353.487 359.775,353.080 359.696,352.200 359.701 C 351.320 359.705,351.007 359.787,351.505 359.883 M315.775 371.300 L 314.600 372.600 315.900 371.425 C 316.615 370.779,317.200 370.194,317.200 370.125 C 317.200 369.816,316.870 370.088,315.775 371.300 M134.975 389.700 L 133.800 391.000 135.100 389.825 C 136.312 388.730,136.584 388.400,136.275 388.400 C 136.206 388.400,135.621 388.985,134.975 389.700 M73.312 391.495 C 74.364 391.577,75.984 391.576,76.912 391.492 C 77.840 391.408,76.980 391.341,75.000 391.342 C 73.020 391.343,72.260 391.412,73.312 391.495 M79.300 391.876 C 79.685 391.976,80.315 391.976,80.700 391.876 C 81.085 391.775,80.770 391.693,80.000 391.693 C 79.230 391.693,78.915 391.775,79.300 391.876 M308.581 406.400 C 308.581 414.650,308.634 418.025,308.699 413.900 C 308.764 409.775,308.764 403.025,308.699 398.900 C 308.634 394.775,308.581 398.150,308.581 406.400 M86.900 392.676 C 87.285 392.776,87.915 392.776,88.300 392.676 C 88.685 392.575,88.370 392.493,87.600 392.493 C 86.830 392.493,86.515 392.575,86.900 392.676 M99.700 394.676 C 100.085 394.776,100.715 394.776,101.100 394.676 C 101.485 394.575,101.170 394.493,100.400 394.493 C 99.630 394.493,99.315 394.575,99.700 394.676 M109.091 395.889 C 109.801 395.977,111.061 395.979,111.891 395.892 C 112.721 395.805,112.140 395.733,110.600 395.731 C 109.060 395.729,108.381 395.800,109.091 395.889 M118.300 395.889 C 119.015 395.978,120.185 395.978,120.900 395.889 C 121.615 395.801,121.030 395.728,119.600 395.728 C 118.170 395.728,117.585 395.801,118.300 395.889 M53.578 399.100 L 52.200 400.600 53.700 399.222 C 55.096 397.938,55.384 397.600,55.078 397.600 C 55.012 397.600,54.337 398.275,53.578 399.100 M49.978 402.300 L 48.600 403.800 50.100 402.422 C 51.496 401.138,51.784 400.800,51.478 400.800 C 51.412 400.800,50.737 401.475,49.978 402.300 M44.778 407.900 L 43.400 409.400 44.900 408.022 C 45.725 407.263,46.400 406.588,46.400 406.522 C 46.400 406.216,46.062 406.504,44.778 407.900 M41.781 411.300 L 40.200 413.000 41.900 411.419 C 43.481 409.948,43.784 409.600,43.481 409.600 C 43.416 409.600,42.651 410.365,41.781 411.300 M28.378 424.300 L 27.000 425.800 28.500 424.422 C 29.325 423.663,30.000 422.988,30.000 422.922 C 30.000 422.616,29.662 422.904,28.378 424.300 M22.000 429.654 L 20.200 431.285 21.894 430.013 C 23.368 428.907,24.314 427.974,23.924 428.012 C 23.856 428.019,22.990 428.758,22.000 429.654 " stroke="none" fill="#131e2c" fill-rule="evenodd"></path><path id="path3" d="M221.233 0.161 C 221.743 0.655,225.360 2.373,225.531 2.202 C 225.781 1.953,225.806 1.970,223.556 0.887 C 221.885 0.083,220.804 -0.255,221.233 0.161 M226.200 2.800 C 226.336 3.020,226.622 3.200,226.836 3.200 C 227.050 3.200,228.434 3.884,229.912 4.721 C 232.795 6.352,234.472 7.105,233.800 6.468 C 232.628 5.355,225.718 2.021,226.200 2.800 M237.000 8.492 C 238.688 9.491,240.000 10.074,240.000 9.827 C 240.000 9.565,237.330 8.094,236.349 7.816 C 235.803 7.661,236.079 7.948,237.000 8.492 M242.159 11.281 C 242.576 11.566,245.165 13.300,247.911 15.132 C 250.658 16.965,253.368 18.894,253.933 19.418 C 254.499 19.943,255.053 20.281,255.164 20.169 C 255.380 19.953,252.785 17.603,252.329 17.601 C 252.179 17.600,251.819 17.372,251.529 17.093 C 250.642 16.241,242.913 11.214,242.132 10.981 C 241.454 10.778,241.456 10.800,242.159 11.281 M258.964 23.890 C 262.242 27.233,265.985 32.335,265.996 33.476 C 265.998 33.738,266.163 34.054,266.363 34.177 C 267.119 34.645,266.192 32.495,264.490 29.834 C 262.552 26.805,259.494 23.395,257.000 21.483 C 256.120 20.809,257.004 21.892,258.964 23.890 M266.806 35.500 C 266.824 36.377,267.588 36.959,267.594 36.100 C 267.597 35.605,267.420 35.200,267.200 35.200 C 266.980 35.200,266.803 35.335,266.806 35.500 M267.796 38.503 C 268.116 40.493,268.086 50.499,267.756 51.899 C 267.551 52.768,267.602 52.901,267.995 52.533 C 268.711 51.863,268.770 38.914,268.062 37.800 C 267.615 37.096,267.583 37.180,267.796 38.503 M267.260 54.667 C 267.227 55.144,267.084 55.864,266.941 56.267 C 266.742 56.831,266.795 56.896,267.172 56.549 C 267.442 56.301,267.585 55.581,267.491 54.949 C 267.370 54.139,267.302 54.056,267.260 54.667 M266.191 60.300 C 266.056 61.125,265.849 62.340,265.731 63.000 C 265.590 63.786,265.651 64.062,265.907 63.800 C 266.280 63.419,266.910 58.800,266.589 58.800 C 266.505 58.800,266.326 59.475,266.191 60.300 M265.099 68.100 C 264.982 69.255,265.026 70.920,265.197 71.800 C 265.445 73.077,265.517 72.654,265.554 69.700 C 265.605 65.573,265.421 64.925,265.099 68.100 M265.600 74.192 C 265.600 74.728,267.184 77.489,267.771 77.976 C 268.733 78.774,268.520 78.058,267.400 76.727 C 266.850 76.073,266.400 75.293,266.400 74.993 C 266.400 74.693,266.220 74.336,266.000 74.200 C 265.780 74.064,265.600 74.061,265.600 74.192 M271.000 79.910 C 271.220 80.130,271.850 80.441,272.400 80.600 C 273.067 80.793,273.267 80.757,273.000 80.490 C 272.780 80.270,272.150 79.959,271.600 79.800 C 270.933 79.607,270.733 79.643,271.000 79.910 M274.000 81.200 C 274.776 81.701,275.200 81.701,275.200 81.200 C 275.200 80.980,274.795 80.803,274.300 80.806 C 273.572 80.811,273.515 80.886,274.000 81.200 M276.800 81.953 C 277.741 82.485,279.863 82.916,279.400 82.481 C 279.180 82.275,278.370 81.995,277.600 81.860 C 276.752 81.711,276.437 81.748,276.800 81.953 M281.000 83.132 C 282.176 83.642,284.735 84.066,284.000 83.630 C 283.670 83.434,282.680 83.163,281.800 83.029 C 280.737 82.867,280.469 82.902,281.000 83.132 M284.833 84.144 C 285.305 84.550,287.243 84.793,287.010 84.416 C 286.868 84.187,286.283 84.000,285.710 84.000 C 285.136 84.000,284.742 84.065,284.833 84.144 M288.800 85.146 C 289.774 85.726,291.458 86.147,291.000 85.697 C 290.780 85.480,290.060 85.188,289.400 85.046 C 288.617 84.878,288.408 84.913,288.800 85.146 M292.000 86.400 C 292.788 86.909,293.715 86.909,293.400 86.400 C 293.264 86.180,292.758 86.003,292.276 86.006 C 291.564 86.011,291.512 86.085,292.000 86.400 M294.576 87.413 C 295.004 87.736,295.544 87.994,295.776 87.987 C 296.009 87.980,295.851 87.710,295.424 87.387 C 294.996 87.064,294.456 86.806,294.224 86.813 C 293.991 86.820,294.149 87.090,294.576 87.413 M0.000 87.342 C 0.000 87.447,0.945 88.219,2.100 89.059 C 3.255 89.900,4.648 90.995,5.196 91.493 C 5.744 91.992,6.316 92.400,6.467 92.400 C 6.619 92.400,6.981 92.625,7.271 92.900 C 7.562 93.175,8.880 94.210,10.200 95.200 C 11.520 96.190,12.780 97.190,13.000 97.422 C 13.220 97.654,14.419 98.608,15.665 99.543 C 16.910 100.478,18.415 101.693,19.009 102.244 C 19.603 102.794,20.189 103.144,20.311 103.022 C 20.433 102.900,20.458 102.744,20.367 102.675 C 20.275 102.607,18.040 100.850,15.400 98.772 C 12.760 96.694,9.520 94.185,8.200 93.198 C 6.880 92.210,5.710 91.311,5.600 91.200 C 4.632 90.222,0.000 87.031,0.000 87.342 M296.400 88.160 C 296.400 88.249,297.030 88.693,297.800 89.147 C 298.570 89.601,299.200 89.838,299.200 89.673 C 299.200 89.508,298.677 89.064,298.038 88.686 C 296.888 88.007,296.400 87.850,296.400 88.160 M301.982 92.644 C 303.402 94.160,304.642 95.490,304.736 95.600 C 304.831 95.710,304.689 95.379,304.421 94.865 C 303.744 93.564,301.239 90.847,300.234 90.323 C 299.776 90.083,300.562 91.128,301.982 92.644 M305.681 97.891 C 306.568 100.023,307.031 100.455,306.599 98.747 C 306.468 98.226,306.011 97.350,305.585 96.800 C 304.880 95.889,304.888 95.986,305.681 97.891 M307.040 101.866 C 307.408 103.399,307.600 103.544,307.600 102.290 C 307.600 101.717,307.413 101.132,307.184 100.990 C 306.911 100.821,306.862 101.123,307.040 101.866 M23.215 105.676 C 23.774 106.184,25.201 107.410,26.386 108.400 C 27.572 109.390,29.230 110.806,30.071 111.547 C 30.912 112.287,31.591 112.737,31.581 112.547 C 31.570 112.356,30.625 111.431,29.481 110.492 C 28.336 109.553,26.590 108.061,25.600 107.177 C 24.610 106.292,23.440 105.385,23.000 105.160 C 22.414 104.861,22.472 104.999,23.215 105.676 M308.249 109.472 C 308.592 112.519,308.800 112.676,308.800 109.890 C 308.800 108.657,308.617 107.534,308.393 107.396 C 308.124 107.230,308.075 107.933,308.249 109.472 M32.000 112.977 C 32.000 113.157,34.295 115.580,37.100 118.360 C 39.905 121.141,43.280 124.665,44.600 126.191 C 47.347 129.369,53.973 136.000,54.399 136.000 C 54.556 136.000,52.506 133.783,49.843 131.074 C 47.179 128.365,43.650 124.630,42.000 122.774 C 38.591 118.940,32.000 112.483,32.000 112.977 M308.924 121.400 C 308.926 122.720,309.001 123.212,309.090 122.493 C 309.179 121.774,309.177 120.694,309.086 120.093 C 308.995 119.492,308.922 120.080,308.924 121.400 M55.825 137.100 C 56.482 137.693,57.200 138.107,59.300 139.105 C 60.319 139.589,59.287 138.725,57.573 137.660 C 55.314 136.255,54.655 136.044,55.825 137.100 M114.100 137.887 C 114.705 137.978,115.695 137.978,116.300 137.887 C 116.905 137.795,116.410 137.720,115.200 137.720 C 113.990 137.720,113.495 137.795,114.100 137.887 M104.072 138.416 C 102.461 138.585,101.047 138.820,100.928 138.938 C 100.561 139.306,108.177 138.720,108.580 138.350 C 109.008 137.956,108.366 137.965,104.072 138.416 M120.800 138.343 C 121.130 138.535,122.390 138.799,123.600 138.930 C 124.840 139.064,125.538 139.023,125.200 138.836 C 124.378 138.382,120.030 137.895,120.800 138.343 M309.054 143.000 C 309.192 145.420,309.433 147.750,309.590 148.178 C 309.747 148.607,309.790 146.987,309.684 144.578 C 309.579 142.170,309.338 139.840,309.148 139.400 C 308.946 138.932,308.907 140.424,309.054 143.000 M60.000 139.414 C 60.000 139.764,63.687 141.238,64.162 141.078 C 64.403 140.997,63.880 140.700,63.000 140.417 C 62.120 140.135,61.229 139.745,61.020 139.552 C 60.599 139.162,60.000 139.081,60.000 139.414 M96.200 139.600 L 94.600 139.886 96.476 139.943 C 97.508 139.974,98.464 139.820,98.600 139.600 C 98.868 139.166,98.622 139.166,96.200 139.600 M126.833 139.364 C 126.925 139.455,128.260 140.174,129.800 140.962 C 131.340 141.750,132.240 142.112,131.800 141.766 C 130.456 140.708,126.023 138.565,126.833 139.364 M90.452 140.432 C 89.051 140.613,87.791 140.881,87.652 141.026 C 87.345 141.348,92.043 140.841,93.531 140.392 C 94.906 139.976,93.860 139.990,90.452 140.432 M65.435 141.565 C 65.636 141.750,66.790 142.004,68.000 142.129 C 69.302 142.265,69.792 142.230,69.200 142.044 C 67.544 141.524,65.044 141.206,65.435 141.565 M81.200 141.828 L 77.800 142.347 81.380 142.131 C 84.668 141.932,88.287 141.202,85.600 141.279 C 85.050 141.295,83.070 141.542,81.200 141.828 M134.181 143.929 C 135.051 144.848,135.916 145.600,136.105 145.600 C 136.675 145.600,136.078 144.927,134.294 143.558 L 132.600 142.257 134.181 143.929 M137.522 147.458 C 138.225 148.369,138.800 149.314,138.800 149.558 C 138.800 149.801,138.990 150.000,139.223 150.000 C 139.787 150.000,138.448 147.774,137.222 146.676 C 136.481 146.012,136.553 146.201,137.522 147.458 M139.726 150.900 C 140.422 152.542,141.039 153.594,141.308 153.597 C 141.478 153.599,141.249 152.880,140.800 152.000 C 140.063 150.556,139.210 149.682,139.726 150.900 M310.226 151.400 C 310.657 153.235,311.227 154.032,310.940 152.400 C 310.805 151.630,310.525 150.820,310.319 150.600 C 310.083 150.349,310.048 150.647,310.226 151.400 M141.897 155.376 C 142.006 155.946,142.273 156.522,142.491 156.656 C 142.737 156.808,142.777 156.542,142.598 155.950 C 142.183 154.579,141.664 154.153,141.897 155.376 M312.000 156.300 C 312.000 156.491,312.261 156.996,312.580 157.424 C 313.140 158.173,313.152 158.168,312.932 157.294 C 312.704 156.391,312.000 155.640,312.000 156.300 M143.040 158.600 C 143.182 159.480,143.474 160.380,143.691 160.600 C 143.949 160.863,143.985 160.520,143.796 159.600 C 143.366 157.507,142.730 156.666,143.040 158.600 M313.828 159.400 C 314.698 160.853,317.663 164.071,317.906 163.827 C 318.002 163.731,317.568 163.130,316.941 162.492 C 316.313 161.854,315.195 160.627,314.455 159.766 C 313.389 158.525,313.259 158.449,313.828 159.400 M144.028 162.076 C 144.013 162.668,144.180 163.264,144.400 163.400 C 144.878 163.695,144.878 162.911,144.400 161.800 C 144.093 161.086,144.053 161.115,144.028 162.076 M145.114 169.800 C 145.208 172.440,145.467 174.780,145.688 175.000 C 145.959 175.269,146.000 174.057,145.815 171.313 C 145.407 165.299,144.914 164.235,145.114 169.800 M320.600 165.820 C 321.780 166.762,322.801 167.272,322.790 166.914 C 322.785 166.741,322.110 166.281,321.290 165.891 C 320.091 165.320,319.956 165.306,320.600 165.820 M323.770 167.552 C 323.890 167.745,324.395 168.006,324.894 168.132 C 325.768 168.352,325.773 168.340,325.024 167.780 C 324.164 167.138,323.432 167.004,323.770 167.552 M326.000 168.563 C 326.000 168.832,330.923 170.410,331.127 170.207 C 331.230 170.103,331.064 169.944,330.757 169.854 C 330.451 169.763,329.384 169.398,328.387 169.044 C 326.527 168.384,326.000 168.277,326.000 168.563 M332.600 170.766 C 333.971 171.315,336.638 171.699,336.200 171.283 C 335.980 171.074,334.900 170.800,333.800 170.674 C 332.638 170.541,332.135 170.579,332.600 170.766 M338.600 172.000 C 339.711 172.478,340.495 172.478,340.200 172.000 C 340.064 171.780,339.468 171.613,338.876 171.628 C 337.915 171.653,337.886 171.693,338.600 172.000 M345.000 173.000 C 348.965 173.669,349.468 173.700,348.980 173.247 C 348.771 173.053,347.070 172.796,345.200 172.677 L 341.800 172.460 345.000 173.000 M353.400 173.977 C 356.002 174.494,360.257 174.813,359.600 174.442 C 359.270 174.255,357.380 174.003,355.400 173.881 C 353.150 173.742,352.400 173.778,353.400 173.977 M362.033 174.946 C 362.490 175.345,366.449 175.603,366.211 175.218 C 366.069 174.988,365.033 174.800,363.910 174.800 C 362.786 174.800,361.942 174.866,362.033 174.946 M371.233 176.144 C 371.653 176.507,375.606 176.734,375.389 176.383 C 375.259 176.172,374.233 176.000,373.110 176.000 C 371.986 176.000,371.142 176.065,371.233 176.144 M145.443 178.100 C 145.052 181.327,144.876 187.021,145.201 185.920 C 145.600 184.570,146.176 176.400,145.872 176.400 C 145.749 176.400,145.556 177.165,145.443 178.100 M378.800 177.165 C 380.211 177.600,385.576 178.044,384.600 177.645 C 384.160 177.465,382.450 177.214,380.800 177.087 C 379.150 176.960,378.250 176.995,378.800 177.165 M386.833 178.145 C 387.236 178.495,390.400 178.688,390.400 178.362 C 390.400 178.163,389.560 178.000,388.533 178.000 C 387.507 178.000,386.742 178.065,386.833 178.145 M394.000 179.164 C 395.671 179.678,399.827 180.064,399.395 179.666 C 399.178 179.466,397.650 179.202,396.000 179.079 C 394.350 178.957,393.450 178.995,394.000 179.164 M144.028 190.300 C 144.053 191.275,144.095 191.309,144.400 190.600 C 144.869 189.507,144.869 189.200,144.400 189.200 C 144.180 189.200,144.013 189.695,144.028 190.300 M143.470 192.700 C 143.372 192.865,143.174 193.810,143.029 194.800 C 142.863 195.939,142.899 196.380,143.129 196.000 C 143.328 195.670,143.594 194.725,143.721 193.900 C 143.940 192.466,143.853 192.052,143.470 192.700 M142.293 197.873 C 142.189 198.053,142.001 198.920,141.874 199.800 L 141.643 201.400 142.217 199.629 C 142.733 198.036,142.776 197.031,142.293 197.873 M141.092 202.642 C 140.931 202.802,140.805 203.308,140.812 203.767 C 140.823 204.536,140.856 204.545,141.240 203.885 C 141.688 203.116,141.573 202.160,141.092 202.642 M140.291 205.473 C 140.006 205.966,139.523 209.600,139.742 209.600 C 140.000 209.600,140.861 205.528,140.648 205.315 C 140.556 205.222,140.395 205.294,140.291 205.473 M139.067 211.067 C 138.920 211.213,138.820 212.068,138.844 212.967 L 138.888 214.600 139.236 212.825 C 139.589 211.024,139.547 210.586,139.067 211.067 M138.071 220.400 C 138.076 222.490,138.210 224.650,138.369 225.200 C 138.527 225.750,138.586 224.220,138.499 221.800 C 138.298 216.216,138.061 215.440,138.071 220.400 M138.840 227.476 C 138.818 228.178,138.980 228.864,139.200 229.000 C 139.660 229.284,139.660 228.636,139.200 227.200 C 138.894 226.245,138.878 226.257,138.840 227.476 M139.628 229.959 C 139.590 230.719,142.095 235.600,142.523 235.600 C 142.711 235.600,142.499 235.008,142.052 234.284 C 141.604 233.560,140.883 232.165,140.447 231.184 C 140.012 230.203,139.644 229.652,139.628 229.959 M142.802 236.239 C 142.800 236.757,144.332 238.603,144.567 238.364 C 144.656 238.274,144.295 237.660,143.766 237.000 C 143.237 236.340,142.803 235.997,142.802 236.239 M144.808 239.092 C 144.799 239.658,151.567 246.539,154.752 249.201 C 155.936 250.191,157.106 251.183,157.352 251.407 C 159.087 252.982,172.868 262.866,173.060 262.673 C 173.155 262.579,171.595 261.354,169.594 259.951 C 158.746 252.345,150.564 245.470,146.308 240.383 C 145.487 239.403,144.812 238.821,144.808 239.092 M173.613 263.077 C 173.624 263.377,176.903 265.612,177.800 265.932 C 178.403 266.147,175.959 264.159,174.700 263.409 C 174.095 263.049,173.606 262.900,173.613 263.077 M175.100 266.297 C 173.395 266.372,172.000 266.593,172.000 266.787 C 172.000 267.127,178.663 267.569,179.319 267.273 C 179.680 267.110,178.840 265.956,178.451 266.080 C 178.313 266.125,176.805 266.222,175.100 266.297 M176.531 268.514 C 175.909 269.016,174.460 270.051,173.310 270.814 C 172.161 271.576,171.216 272.322,171.210 272.471 C 171.201 272.722,177.326 268.754,178.180 267.955 C 179.022 267.168,177.600 267.650,176.531 268.514 M169.242 273.500 C 166.819 275.342,166.434 275.895,168.500 274.566 C 169.765 273.753,170.800 273.022,170.800 272.943 C 170.800 272.600,170.093 272.853,169.242 273.500 M163.100 277.903 C 162.495 278.278,162.000 278.736,162.000 278.920 C 162.000 279.104,162.540 278.870,163.200 278.400 C 163.860 277.930,164.400 277.468,164.400 277.373 C 164.400 277.118,164.304 277.157,163.100 277.903 M159.761 280.312 C 159.080 280.910,158.045 281.740,157.461 282.156 C 156.878 282.572,156.400 283.082,156.400 283.290 C 156.400 283.637,157.464 282.863,160.600 280.235 C 161.260 279.681,161.620 279.228,161.400 279.226 C 161.180 279.225,160.443 279.713,159.761 280.312 M153.807 285.303 C 151.034 287.664,144.798 294.103,144.808 294.594 C 144.813 294.817,146.028 293.680,147.508 292.067 C 148.989 290.455,151.550 287.897,153.200 286.385 C 156.531 283.331,156.905 282.664,153.807 285.303 M143.464 296.400 C 143.074 297.060,142.843 297.600,142.950 297.600 C 143.058 297.600,143.530 297.060,144.000 296.400 C 144.470 295.740,144.701 295.200,144.513 295.200 C 144.326 295.200,143.854 295.740,143.464 296.400 M141.809 299.000 C 140.320 301.444,140.111 301.864,139.847 302.934 C 139.664 303.679,139.710 303.979,139.984 303.810 C 140.213 303.668,140.400 303.333,140.400 303.065 C 140.400 302.797,140.934 301.548,141.588 300.289 C 142.789 297.972,142.929 297.162,141.809 299.000 M139.067 305.467 C 138.920 305.613,138.815 306.198,138.834 306.767 C 138.868 307.781,138.875 307.779,139.221 306.620 C 139.585 305.403,139.531 305.002,139.067 305.467 M138.137 313.000 C 138.139 314.760,138.209 315.430,138.293 314.489 C 138.378 313.549,138.377 312.109,138.291 311.289 C 138.205 310.470,138.136 311.240,138.137 313.000 M138.493 317.600 C 138.493 318.370,138.575 318.685,138.676 318.300 C 138.776 317.915,138.776 317.285,138.676 316.900 C 138.575 316.515,138.493 316.830,138.493 317.600 M138.800 320.710 C 138.800 321.613,138.984 322.467,139.209 322.606 C 139.479 322.773,139.528 322.269,139.354 321.129 C 139.003 318.844,138.800 318.690,138.800 320.710 M139.874 325.800 C 140.000 326.900,140.274 327.980,140.483 328.200 C 140.723 328.453,140.757 328.013,140.574 327.000 C 140.111 324.426,139.620 323.584,139.874 325.800 M140.806 329.876 C 140.803 330.358,140.980 330.864,141.200 331.000 C 141.709 331.315,141.709 330.388,141.200 329.600 C 140.885 329.112,140.811 329.164,140.806 329.876 M141.855 333.800 C 141.988 334.680,142.268 335.580,142.477 335.800 C 142.884 336.228,142.543 334.427,141.947 333.000 C 141.735 332.492,141.701 332.783,141.855 333.800 M143.024 338.800 C 143.166 339.790,143.437 340.764,143.627 340.965 C 144.064 341.430,143.617 338.409,143.129 337.600 C 142.899 337.219,142.861 337.658,143.024 338.800 M144.028 343.300 C 144.013 343.905,144.180 344.400,144.400 344.400 C 144.869 344.400,144.869 344.093,144.400 343.000 C 144.095 342.291,144.053 342.325,144.028 343.300 M145.105 350.200 C 145.214 352.180,145.465 354.070,145.664 354.400 C 145.885 354.767,145.922 353.770,145.759 351.829 C 145.372 347.215,144.874 345.975,145.105 350.200 M395.809 354.046 C 392.216 354.569,392.213 354.767,395.800 354.519 C 397.560 354.397,399.171 354.140,399.380 353.949 C 399.825 353.541,399.152 353.559,395.809 354.046 M388.200 355.200 C 387.074 355.487,387.105 355.508,388.700 355.553 C 389.635 355.579,390.400 355.420,390.400 355.200 C 390.400 354.753,389.956 354.753,388.200 355.200 M381.448 356.039 C 379.714 356.222,378.191 356.475,378.065 356.602 C 377.738 356.929,384.433 356.349,385.400 355.967 L 386.200 355.651 385.400 355.679 C 384.960 355.694,383.181 355.856,381.448 356.039 M372.059 357.231 C 368.290 357.720,368.156 357.971,371.800 357.719 C 373.560 357.597,375.171 357.340,375.380 357.149 C 375.808 356.756,375.702 356.758,372.059 357.231 M363.800 358.400 C 362.667 358.688,362.693 358.708,364.276 358.753 C 365.198 358.779,366.064 358.620,366.200 358.400 C 366.479 357.948,365.575 357.948,363.800 358.400 M356.838 359.247 C 352.703 359.727,352.674 360.133,356.800 359.780 C 360.100 359.498,363.123 358.816,360.800 358.877 C 360.250 358.892,358.467 359.058,356.838 359.247 M347.400 360.400 L 345.400 360.674 347.900 360.737 C 349.342 360.773,350.400 360.631,350.400 360.400 C 350.400 360.180,350.175 360.028,349.900 360.063 C 349.625 360.097,348.500 360.249,347.400 360.400 M145.432 361.700 C 145.090 363.383,144.874 369.004,145.182 368.200 C 145.568 367.194,146.132 360.800,145.835 360.800 C 145.714 360.800,145.533 361.205,145.432 361.700 M339.400 361.600 C 338.667 361.915,338.684 361.946,339.600 361.966 C 340.150 361.978,340.870 361.813,341.200 361.600 C 341.987 361.091,340.584 361.091,339.400 361.600 M334.845 362.432 C 333.879 362.622,332.983 362.884,332.852 363.015 C 332.471 363.396,336.961 362.737,337.380 362.350 C 337.830 361.935,337.286 361.953,334.845 362.432 M327.400 364.586 C 326.740 364.888,326.470 365.143,326.800 365.153 C 327.130 365.163,327.850 364.914,328.400 364.600 C 329.673 363.872,328.980 363.862,327.400 364.586 M324.400 365.800 C 323.759 366.166,323.624 366.377,324.024 366.386 C 324.366 366.394,324.996 366.136,325.424 365.813 C 326.418 365.061,325.709 365.052,324.400 365.800 M319.652 368.429 C 317.278 370.014,313.008 374.341,313.415 374.749 C 313.527 374.860,313.889 374.565,314.220 374.093 C 315.486 372.285,317.502 370.445,320.174 368.656 C 321.700 367.635,322.756 366.800,322.520 366.800 C 322.284 366.800,320.993 367.533,319.652 368.429 M144.292 370.642 C 144.131 370.802,144.011 371.398,144.025 371.967 L 144.051 373.000 144.437 372.034 C 144.853 370.994,144.767 370.167,144.292 370.642 M143.240 374.640 C 143.010 375.473,142.894 376.227,142.982 376.315 C 143.070 376.403,143.330 375.793,143.560 374.960 C 143.790 374.127,143.906 373.373,143.818 373.285 C 143.730 373.197,143.470 373.807,143.240 374.640 M312.548 375.843 C 312.399 376.259,312.204 376.735,312.115 376.900 C 312.026 377.065,312.122 377.200,312.330 377.200 C 312.729 377.200,313.291 375.557,312.994 375.260 C 312.897 375.164,312.697 375.426,312.548 375.843 M142.011 378.171 C 141.417 379.734,141.534 379.980,142.247 378.665 C 142.586 378.040,142.764 377.430,142.642 377.309 C 142.521 377.188,142.237 377.576,142.011 378.171 M311.244 378.844 C 310.662 380.514,310.941 380.792,311.600 379.200 C 311.879 378.526,312.014 377.881,311.900 377.767 C 311.786 377.653,311.491 378.138,311.244 378.844 M310.446 381.067 C 310.421 381.324,310.284 381.864,310.141 382.267 C 309.940 382.836,309.994 382.897,310.379 382.542 C 310.652 382.291,310.789 381.751,310.684 381.342 C 310.579 380.934,310.472 380.810,310.446 381.067 M138.882 384.167 C 137.954 385.579,136.260 387.649,135.118 388.767 C 133.976 389.885,133.220 390.800,133.438 390.800 C 134.290 390.800,138.868 385.417,140.155 382.900 C 141.174 380.909,140.741 381.340,138.882 384.167 M309.459 385.471 C 309.067 387.510,308.704 393.406,308.988 393.134 C 309.141 392.988,309.426 391.018,309.623 388.757 C 309.971 384.745,309.895 383.208,309.459 385.471 M68.000 391.495 C 67.010 391.581,66.020 391.828,65.800 392.046 C 65.393 392.448,67.502 392.240,70.400 391.593 C 71.914 391.255,71.146 391.224,68.000 391.495 M80.200 391.589 C 83.580 392.141,86.933 392.371,86.557 392.025 C 86.361 391.844,84.400 391.598,82.200 391.479 C 79.443 391.330,78.822 391.364,80.200 391.589 M131.612 391.584 C 131.288 391.789,131.121 392.054,131.241 392.174 C 131.360 392.294,131.805 392.129,132.229 391.809 C 133.073 391.171,132.560 390.985,131.612 391.584 M62.200 393.110 C 60.335 393.846,60.199 393.932,60.468 394.202 C 60.579 394.313,61.194 394.162,61.835 393.866 C 62.476 393.570,63.450 393.131,64.000 392.891 C 65.556 392.211,63.995 392.401,62.200 393.110 M89.600 392.749 C 90.150 392.927,91.680 393.179,93.000 393.309 C 94.399 393.447,94.975 393.414,94.381 393.229 C 93.820 393.055,92.290 392.803,90.981 392.670 C 89.573 392.526,89.009 392.559,89.600 392.749 M128.464 393.264 C 127.509 393.703,126.807 394.140,126.902 394.236 C 127.099 394.432,130.800 392.862,130.800 392.581 C 130.800 392.279,130.280 392.431,128.464 393.264 M95.633 393.747 C 96.100 394.158,98.857 394.416,98.616 394.026 C 98.471 393.791,97.703 393.600,96.910 393.600 C 96.116 393.600,95.542 393.666,95.633 393.747 M58.300 395.103 C 57.695 395.478,57.200 395.952,57.200 396.155 C 57.200 396.358,57.515 396.251,57.900 395.918 C 58.285 395.585,58.960 395.112,59.400 394.868 C 59.840 394.624,60.020 394.424,59.800 394.423 C 59.580 394.422,58.905 394.728,58.300 395.103 M102.687 394.779 C 104.979 395.339,109.028 395.681,108.600 395.278 C 108.380 395.071,106.670 394.803,104.800 394.683 C 102.804 394.554,101.932 394.594,102.687 394.779 M123.600 394.693 C 122.830 394.783,122.020 395.038,121.800 395.260 C 121.367 395.696,123.954 395.343,125.400 394.768 C 126.239 394.435,125.909 394.421,123.600 394.693 M114.100 395.887 C 114.705 395.978,115.695 395.978,116.300 395.887 C 116.905 395.795,116.410 395.720,115.200 395.720 C 113.990 395.720,113.495 395.795,114.100 395.887 M53.200 398.841 C 50.709 401.025,49.041 402.643,47.000 404.852 C 43.650 408.478,43.281 409.184,46.400 406.000 C 48.016 404.350,50.612 401.793,52.169 400.317 C 55.061 397.577,55.724 396.627,53.200 398.841 M39.400 413.096 C 37.420 415.228,35.099 417.609,34.242 418.387 C 30.756 421.548,29.885 422.418,30.046 422.580 C 30.310 422.843,37.536 415.987,40.765 412.412 C 42.360 410.645,43.515 409.204,43.332 409.209 C 43.150 409.215,41.380 410.964,39.400 413.096 M308.474 422.450 C 308.433 423.248,308.298 424.507,308.173 425.250 C 307.989 426.347,308.031 426.468,308.394 425.898 C 308.640 425.512,308.776 424.252,308.695 423.098 C 308.591 421.621,308.526 421.429,308.474 422.450 M28.385 423.713 C 27.826 424.201,26.408 425.410,25.232 426.400 C 24.057 427.390,22.894 428.383,22.648 428.606 C 22.401 428.829,21.390 429.636,20.400 430.400 C 19.410 431.164,18.401 431.971,18.157 432.194 C 17.914 432.417,16.433 433.590,14.867 434.800 C 13.300 436.010,12.015 437.163,12.009 437.362 C 12.004 437.561,12.315 437.454,12.700 437.125 C 13.085 436.796,16.640 433.908,20.600 430.709 C 26.893 425.625,30.135 422.771,29.570 422.813 C 29.476 422.820,28.943 423.225,28.385 423.713 M307.423 429.900 C 307.277 430.725,307.057 431.760,306.934 432.200 C 306.785 432.732,306.844 432.866,307.108 432.600 C 307.512 432.194,308.200 428.400,307.869 428.400 C 307.770 428.400,307.569 429.075,307.423 429.900 M305.766 435.401 C 305.308 436.391,305.062 437.200,305.221 437.200 C 305.607 437.200,306.888 434.465,306.727 433.983 C 306.657 433.774,306.225 434.412,305.766 435.401 M10.154 438.486 C 9.519 438.974,8.910 439.469,8.800 439.587 C 8.690 439.705,7.520 440.611,6.200 441.600 C 4.880 442.589,3.710 443.494,3.600 443.612 C 3.490 443.729,2.600 444.405,1.621 445.113 C 0.643 445.821,0.033 446.400,0.266 446.400 C 0.619 446.400,1.927 445.499,4.200 443.691 C 4.420 443.516,6.074 442.254,7.876 440.887 C 10.814 438.657,11.972 437.600,11.478 437.600 C 11.384 437.600,10.789 437.999,10.154 438.486 M302.052 440.831 C 300.651 442.354,299.681 443.600,299.897 443.600 C 300.385 443.600,303.722 440.066,304.360 438.875 C 305.025 437.632,304.893 437.744,302.052 440.831 M297.681 444.481 C 296.956 444.929,296.448 445.382,296.553 445.487 C 296.806 445.740,299.200 444.317,299.200 443.914 C 299.200 443.526,299.269 443.500,297.681 444.481 M294.400 446.231 L 293.400 446.833 294.400 446.572 C 294.950 446.428,295.571 446.150,295.780 445.955 C 296.391 445.384,295.514 445.559,294.400 446.231 M289.000 448.207 L 287.400 448.752 289.000 448.528 C 289.880 448.404,290.771 448.145,290.980 447.951 C 291.498 447.473,290.945 447.544,289.000 448.207 M285.400 449.200 C 284.629 449.531,284.631 449.545,285.476 449.572 C 285.958 449.587,286.464 449.420,286.600 449.200 C 286.892 448.727,286.501 448.727,285.400 449.200 M282.224 450.050 C 281.357 450.253,280.547 450.529,280.424 450.663 C 280.106 451.008,283.277 450.399,284.000 449.976 C 284.732 449.547,284.289 449.566,282.224 450.050 M277.280 451.195 C 275.381 451.644,275.225 452.008,277.050 451.729 C 278.698 451.476,280.366 450.797,279.200 450.853 C 278.870 450.869,278.006 451.023,277.280 451.195 M272.464 452.864 C 271.509 453.303,270.807 453.740,270.902 453.836 C 271.099 454.032,274.800 452.462,274.800 452.181 C 274.800 451.879,274.280 452.031,272.464 452.864 M267.087 456.474 C 265.967 457.968,265.239 459.870,265.957 459.426 C 266.201 459.276,266.400 458.907,266.400 458.607 C 266.400 458.307,266.872 457.500,267.450 456.814 C 268.027 456.128,268.405 455.472,268.290 455.357 C 268.175 455.242,267.634 455.744,267.087 456.474 M265.004 462.100 C 264.869 463.035,264.927 464.790,265.132 466.000 C 265.496 468.137,265.508 468.087,265.553 464.300 C 265.603 460.138,265.403 459.336,265.004 462.100 M265.826 471.392 C 266.311 474.694,266.752 475.595,266.516 472.800 C 266.396 471.370,266.125 470.020,265.916 469.800 C 265.673 469.546,265.641 470.125,265.826 471.392 M267.028 478.261 C 267.397 480.303,267.600 480.455,267.600 478.690 C 267.600 477.897,267.409 477.129,267.174 476.984 C 266.885 476.805,266.838 477.212,267.028 478.261 M267.800 488.591 C 267.800 493.455,267.929 495.715,268.181 495.271 C 268.657 494.434,268.629 482.069,268.150 481.590 C 267.950 481.389,267.800 484.382,267.800 488.591 M267.246 496.667 C 267.221 496.924,267.084 497.464,266.941 497.867 C 266.740 498.436,266.794 498.497,267.179 498.142 C 267.452 497.891,267.589 497.351,267.484 496.942 C 267.379 496.534,267.272 496.410,267.246 496.667 M266.170 499.775 C 266.036 500.312,265.150 501.932,264.202 503.375 C 263.254 504.819,262.598 506.000,262.745 506.000 C 263.173 506.000,266.345 500.958,266.629 499.828 C 266.771 499.263,266.781 498.800,266.651 498.800 C 266.521 498.800,266.305 499.239,266.170 499.775 M258.800 509.872 C 256.930 511.781,256.120 512.786,257.000 512.106 C 258.491 510.955,259.973 509.463,261.774 507.300 C 263.305 505.462,262.101 506.503,258.800 509.872 M250.862 516.390 C 248.586 518.078,245.944 519.896,244.992 520.429 C 240.156 523.140,237.957 524.490,238.116 524.649 C 238.323 524.856,240.723 523.620,241.510 522.900 C 241.811 522.625,242.234 522.400,242.450 522.400 C 242.665 522.400,244.382 521.365,246.264 520.100 C 248.147 518.835,249.973 517.620,250.322 517.400 C 251.152 516.876,251.897 516.317,252.585 515.700 C 252.892 515.425,253.253 515.200,253.388 515.200 C 253.756 515.200,255.368 513.631,255.171 513.465 C 255.077 513.386,253.138 514.702,250.862 516.390 M231.200 528.218 C 229.770 528.995,227.996 529.905,227.257 530.239 C 226.518 530.573,226.009 530.942,226.125 531.058 C 226.333 531.266,233.044 527.846,233.780 527.156 C 234.450 526.528,233.860 526.771,231.200 528.218 M223.100 532.312 C 222.054 532.874,221.271 533.405,221.359 533.493 C 221.595 533.729,225.582 531.852,225.592 531.500 C 225.604 531.054,225.195 531.188,223.100 532.312 " stroke="none" fill="#1c242c" fill-rule="evenodd"></path><path id="path4" d="M258.783 24.100 C 259.764 25.145,260.619 26.000,260.683 26.000 C 260.984 26.000,260.666 25.641,258.900 23.983 L 257.000 22.200 258.783 24.100 M265.400 62.000 C 265.248 62.691,265.207 63.341,265.309 63.442 C 265.411 63.544,265.609 63.053,265.750 62.350 C 266.083 60.683,265.760 60.360,265.400 62.000 M266.400 76.925 C 266.400 76.994,266.985 77.579,267.700 78.225 L 269.000 79.400 267.825 78.100 C 266.730 76.888,266.400 76.616,266.400 76.925 M307.701 107.400 C 307.705 108.280,307.787 108.593,307.883 108.095 C 307.979 107.598,307.975 106.878,307.875 106.495 C 307.775 106.113,307.696 106.520,307.701 107.400 M308.093 111.200 C 308.093 111.970,308.175 112.285,308.276 111.900 C 308.376 111.515,308.376 110.885,308.276 110.500 C 308.175 110.115,308.093 110.430,308.093 111.200 M31.200 111.800 C 31.946 112.570,32.647 113.200,32.757 113.200 C 32.867 113.200,32.346 112.570,31.600 111.800 C 30.854 111.030,30.153 110.400,30.043 110.400 C 29.933 110.400,30.454 111.030,31.200 111.800 M38.400 118.600 C 39.146 119.370,39.847 120.000,39.957 120.000 C 40.067 120.000,39.546 119.370,38.800 118.600 C 38.054 117.830,37.353 117.200,37.243 117.200 C 37.133 117.200,37.654 117.830,38.400 118.600 M46.600 127.600 C 47.459 128.480,48.252 129.200,48.362 129.200 C 48.472 129.200,47.859 128.480,47.000 127.600 C 46.141 126.720,45.348 126.000,45.238 126.000 C 45.128 126.000,45.741 126.720,46.600 127.600 M113.911 137.493 C 114.851 137.578,116.291 137.577,117.111 137.491 C 117.930 137.405,117.160 137.336,115.400 137.337 C 113.640 137.339,112.970 137.409,113.911 137.493 M106.100 137.876 C 106.485 137.976,107.115 137.976,107.500 137.876 C 107.885 137.775,107.570 137.693,106.800 137.693 C 106.030 137.693,105.715 137.775,106.100 137.876 M97.300 139.076 C 97.685 139.176,98.315 139.176,98.700 139.076 C 99.085 138.975,98.770 138.893,98.000 138.893 C 97.230 138.893,96.915 138.975,97.300 139.076 M308.520 142.400 C 308.520 143.610,308.595 144.105,308.687 143.500 C 308.778 142.895,308.778 141.905,308.687 141.300 C 308.595 140.695,308.520 141.190,308.520 142.400 M76.300 141.882 C 76.795 141.978,77.605 141.978,78.100 141.882 C 78.595 141.787,78.190 141.709,77.200 141.709 C 76.210 141.709,75.805 141.787,76.300 141.882 M146.131 172.600 C 146.133 174.140,146.205 174.721,146.292 173.891 C 146.379 173.061,146.377 171.801,146.289 171.091 C 146.200 170.381,146.129 171.060,146.131 172.600 M347.505 173.883 C 348.002 173.979,348.722 173.975,349.105 173.875 C 349.487 173.775,349.080 173.696,348.200 173.701 C 347.320 173.705,347.007 173.787,347.505 173.883 M365.105 175.883 C 365.602 175.979,366.322 175.975,366.705 175.875 C 367.087 175.775,366.680 175.696,365.800 175.701 C 364.920 175.705,364.607 175.787,365.105 175.883 M146.131 179.400 C 146.133 180.940,146.205 181.521,146.292 180.691 C 146.379 179.861,146.377 178.601,146.289 177.891 C 146.200 177.181,146.129 177.860,146.131 179.400 M389.300 179.076 C 389.685 179.176,390.315 179.176,390.700 179.076 C 391.085 178.975,390.770 178.893,390.000 178.893 C 389.230 178.893,388.915 178.975,389.300 179.076 M143.829 193.829 C 143.681 194.415,143.638 194.972,143.732 195.066 C 143.827 195.160,144.024 194.758,144.171 194.171 C 144.319 193.585,144.362 193.028,144.268 192.934 C 144.173 192.840,143.976 193.242,143.829 193.829 M140.629 206.629 C 140.481 207.215,140.438 207.772,140.532 207.866 C 140.627 207.960,140.824 207.558,140.971 206.971 C 141.119 206.385,141.162 205.828,141.068 205.734 C 140.973 205.640,140.776 206.042,140.629 206.629 M138.909 217.200 C 138.909 218.190,138.987 218.595,139.082 218.100 C 139.178 217.605,139.178 216.795,139.082 216.300 C 138.987 215.805,138.909 216.210,138.909 217.200 M149.183 243.300 C 150.841 245.066,151.200 245.384,151.200 245.083 C 151.200 245.019,150.345 244.164,149.300 243.183 L 147.400 241.400 149.183 243.300 M154.000 247.800 C 154.746 248.570,155.447 249.200,155.557 249.200 C 155.667 249.200,155.146 248.570,154.400 247.800 C 153.654 247.030,152.953 246.400,152.843 246.400 C 152.733 246.400,153.254 247.030,154.000 247.800 M158.000 250.933 C 158.000 251.043,158.720 251.703,159.600 252.400 C 160.480 253.097,161.200 253.577,161.200 253.467 C 161.200 253.357,160.480 252.697,159.600 252.000 C 158.720 251.303,158.000 250.823,158.000 250.933 M151.781 288.100 L 150.200 289.800 151.900 288.219 C 153.481 286.748,153.784 286.400,153.481 286.400 C 153.416 286.400,152.651 287.165,151.781 288.100 M147.385 292.500 L 145.400 294.600 147.500 292.615 C 148.655 291.523,149.600 290.578,149.600 290.515 C 149.600 290.217,149.229 290.549,147.385 292.500 M138.901 315.800 C 138.905 316.680,138.987 316.993,139.083 316.495 C 139.179 315.998,139.175 315.278,139.075 314.895 C 138.975 314.513,138.896 314.920,138.901 315.800 M141.606 330.633 C 141.609 331.055,141.795 331.670,142.018 332.000 C 142.315 332.438,142.352 332.276,142.156 331.400 C 141.827 329.929,141.598 329.610,141.606 330.633 M146.109 352.800 C 146.109 353.790,146.187 354.195,146.282 353.700 C 146.378 353.205,146.378 352.395,146.282 351.900 C 146.187 351.405,146.109 351.810,146.109 352.800 M389.300 354.676 C 389.685 354.776,390.315 354.776,390.700 354.676 C 391.085 354.575,390.770 354.493,390.000 354.493 C 389.230 354.493,388.915 354.575,389.300 354.676 M365.300 357.876 C 365.685 357.976,366.315 357.976,366.700 357.876 C 367.085 357.775,366.770 357.693,366.000 357.693 C 365.230 357.693,364.915 357.775,365.300 357.876 M348.900 359.876 C 349.285 359.976,349.915 359.976,350.300 359.876 C 350.685 359.775,350.370 359.693,349.600 359.693 C 348.830 359.693,348.515 359.775,348.900 359.876 M146.114 363.000 C 146.117 364.100,146.195 364.503,146.287 363.895 C 146.379 363.286,146.377 362.386,146.282 361.895 C 146.187 361.403,146.111 361.900,146.114 363.000 M308.501 390.200 C 308.505 391.080,308.587 391.393,308.683 390.895 C 308.779 390.398,308.775 389.678,308.675 389.295 C 308.575 388.913,308.496 389.320,308.501 390.200 M76.300 391.882 C 76.795 391.978,77.605 391.978,78.100 391.882 C 78.595 391.787,78.190 391.709,77.200 391.709 C 76.210 391.709,75.805 391.787,76.300 391.882 M113.911 396.293 C 114.851 396.378,116.291 396.377,117.111 396.291 C 117.930 396.205,117.160 396.136,115.400 396.137 C 113.640 396.139,112.970 396.209,113.911 396.293 M50.185 402.500 L 48.200 404.600 50.300 402.615 C 51.455 401.523,52.400 400.578,52.400 400.515 C 52.400 400.217,52.029 400.549,50.185 402.500 M39.775 413.700 L 38.600 415.000 39.900 413.825 C 40.615 413.179,41.200 412.594,41.200 412.525 C 41.200 412.216,40.870 412.488,39.775 413.700 M33.381 420.100 L 31.800 421.800 33.500 420.219 C 35.081 418.748,35.384 418.400,35.081 418.400 C 35.016 418.400,34.251 419.165,33.381 420.100 M308.093 422.000 C 308.093 422.770,308.175 423.085,308.276 422.700 C 308.376 422.315,308.376 421.685,308.276 421.300 C 308.175 420.915,308.093 421.230,308.093 422.000 M307.693 426.000 C 307.693 426.770,307.775 427.085,307.876 426.700 C 307.976 426.315,307.976 425.685,307.876 425.300 C 307.775 424.915,307.693 425.230,307.693 426.000 M267.693 485.600 C 267.693 486.370,267.775 486.685,267.876 486.300 C 267.976 485.915,267.976 485.285,267.876 484.900 C 267.775 484.515,267.693 484.830,267.693 485.600 " stroke="none" fill="#0c1c24" fill-rule="evenodd"></path></g></svg>