<svg width="741" height="741" viewBox="0 0 741 741" fill="none" xmlns="http://www.w3.org/2000/svg">
<path d="M189.325 47.3191C134.434 78.0911 88.2848 122.337 55.23 175.885C22.1752 229.432 3.30397 290.517 0.395845 353.378C-2.51228 416.239 10.6386 478.805 38.6082 535.176C66.5779 591.547 108.445 639.864 160.26 675.573L187.248 636.413C142.083 605.288 105.591 563.172 81.2112 514.037C56.8318 464.902 45.3691 410.368 47.9039 355.576C50.4387 300.784 66.8876 247.54 95.6993 200.866C124.511 154.192 164.736 115.626 212.581 88.8039L189.325 47.3191Z" fill="#12A112"/>
<path d="M234.132 200.8C207.58 222.121 186.419 249.391 172.359 280.406C158.3 311.42 151.737 345.309 153.201 379.33C154.665 413.351 164.115 446.55 180.787 476.242C197.459 505.934 220.885 531.286 249.17 550.247L272.439 515.536C249.601 500.226 230.686 479.756 217.225 455.782C203.764 431.808 196.134 405.002 194.951 377.533C193.769 350.064 199.069 322.702 210.42 297.66C221.772 272.618 238.858 250.599 260.297 233.384L234.132 200.8Z" fill="#12A112"/>
</svg>
