<svg width="2274" height="3141" viewBox="0 0 2274 3141" fill="none" xmlns="http://www.w3.org/2000/svg">
<rect x="799.748" y="1536" width="706" height="706" fill="#98DC9F"/>
<path d="M477.5 1526L891.027 2242.25H63.9729L477.5 1526Z" fill="#81BBDB"/>
<circle cx="1750" cy="1889" r="353" fill="#E6CB88"/>
<path d="M2081.99 332.121L1749.87 907.371L1417.75 332.121L2081.99 332.121Z" fill="#DD9B9B"/>
<path d="M281.143 1399.58C293.906 1421.11 321.714 1428.23 343.253 1415.46C364.792 1402.7 371.906 1374.89 359.142 1353.35C346.378 1331.81 318.57 1324.7 297.031 1337.46C275.492 1350.23 268.379 1378.04 281.143 1399.58ZM1225.85 915.703L1162.86 840.431L1129.17 932.616L1225.85 915.703ZM774.982 750.911L777.9 742.927L767.625 739.171L766.526 750.056L774.982 750.911ZM621.396 1194.53L615.074 1188.85L621.396 1194.53ZM772.065 758.894L1151.08 897.425L1156.91 881.458L777.9 742.927L772.065 758.894ZM320.142 1376.46C323.167 1384.41 323.168 1384.41 323.171 1384.41C323.173 1384.41 323.177 1384.4 323.18 1384.4C323.188 1384.4 323.199 1384.4 323.214 1384.39C323.242 1384.38 323.283 1384.36 323.336 1384.34C323.443 1384.3 323.6 1384.24 323.806 1384.16C324.217 1384 324.823 1383.77 325.613 1383.46C327.195 1382.84 329.515 1381.92 332.496 1380.72C338.456 1378.32 347.056 1374.78 357.656 1370.22C378.85 1361.09 408.072 1347.86 440.195 1331.4C504.165 1298.62 580.678 1252.56 627.718 1200.22L615.074 1188.85C570.245 1238.73 496.132 1283.63 432.442 1316.27C400.735 1332.51 371.869 1345.59 350.933 1354.61C340.468 1359.11 331.992 1362.6 326.142 1364.96C323.217 1366.13 320.95 1367.03 319.419 1367.63C318.654 1367.93 318.073 1368.15 317.686 1368.3C317.493 1368.38 317.348 1368.43 317.253 1368.47C317.205 1368.49 317.17 1368.5 317.148 1368.51C317.136 1368.51 317.128 1368.52 317.123 1368.52C317.121 1368.52 317.12 1368.52 317.118 1368.52C317.118 1368.52 317.118 1368.52 320.142 1376.46ZM627.718 1200.22C690.498 1130.36 729.28 1017.65 752.399 923.617C764.011 876.392 771.765 833.473 776.616 802.361C779.043 786.8 780.746 774.181 781.843 765.438C782.392 761.067 782.79 757.664 783.051 755.346C783.181 754.187 783.278 753.3 783.342 752.698C783.374 752.397 783.398 752.168 783.414 752.011C783.422 751.933 783.428 751.874 783.433 751.832C783.435 751.812 783.436 751.796 783.437 751.785C783.438 751.779 783.439 751.774 783.439 751.771C783.439 751.767 783.439 751.765 774.982 750.911C766.526 750.056 766.526 750.056 766.525 750.057C766.525 750.059 766.525 750.061 766.525 750.065C766.524 750.072 766.523 750.084 766.521 750.101C766.518 750.134 766.512 750.186 766.505 750.256C766.49 750.396 766.468 750.61 766.438 750.894C766.377 751.464 766.284 752.318 766.157 753.443C765.904 755.693 765.515 759.024 764.976 763.321C763.897 771.915 762.217 784.366 759.82 799.742C755.022 830.503 747.357 872.923 735.891 919.558C712.854 1013.25 674.842 1122.35 615.074 1188.85L627.718 1200.22Z" fill="#F5F5F5"/>
<path d="M1474.6 2919H1353L1330.6 2981H1292.2L1393 2703.8H1435L1535.4 2981H1497L1474.6 2919ZM1464.2 2889.4L1413.8 2748.6L1363.4 2889.4H1464.2ZM1718.93 2837.4C1729.06 2839 1738.26 2843.13 1746.53 2849.8C1755.06 2856.47 1761.73 2864.73 1766.53 2874.6C1771.6 2884.47 1774.13 2895 1774.13 2906.2C1774.13 2920.33 1770.53 2933.13 1763.33 2944.6C1756.13 2955.8 1745.6 2964.73 1731.73 2971.4C1718.13 2977.8 1702 2981 1683.33 2981H1579.33V2702.2H1679.33C1698.26 2702.2 1714.4 2705.4 1727.73 2711.8C1741.06 2717.93 1751.06 2726.33 1757.73 2737C1764.4 2747.67 1767.73 2759.67 1767.73 2773C1767.73 2789.53 1763.2 2803.27 1754.13 2814.2C1745.33 2824.87 1733.6 2832.6 1718.93 2837.4ZM1615.73 2822.6H1676.93C1694 2822.6 1707.2 2818.6 1716.53 2810.6C1725.86 2802.6 1730.53 2791.53 1730.53 2777.4C1730.53 2763.27 1725.86 2752.2 1716.53 2744.2C1707.2 2736.2 1693.73 2732.2 1676.13 2732.2H1615.73V2822.6ZM1680.13 2951C1698.26 2951 1712.4 2946.73 1722.53 2938.2C1732.66 2929.67 1737.73 2917.8 1737.73 2902.6C1737.73 2887.13 1732.4 2875 1721.73 2866.2C1711.06 2857.13 1696.8 2852.6 1678.93 2852.6H1615.73V2951H1680.13ZM1811.04 2841.4C1811.04 2814.2 1817.18 2789.8 1829.44 2768.2C1841.71 2746.33 1858.38 2729.27 1879.44 2717C1900.78 2704.73 1924.38 2698.6 1950.24 2698.6C1980.64 2698.6 2007.18 2705.93 2029.84 2720.6C2052.51 2735.27 2069.04 2756.07 2079.44 2783H2035.84C2028.11 2766.2 2016.91 2753.27 2002.24 2744.2C1987.84 2735.13 1970.51 2730.6 1950.24 2730.6C1930.78 2730.6 1913.31 2735.13 1897.84 2744.2C1882.38 2753.27 1870.24 2766.2 1861.44 2783C1852.64 2799.53 1848.24 2819 1848.24 2841.4C1848.24 2863.53 1852.64 2883 1861.44 2899.8C1870.24 2916.33 1882.38 2929.13 1897.84 2938.2C1913.31 2947.27 1930.78 2951.8 1950.24 2951.8C1970.51 2951.8 1987.84 2947.4 2002.24 2938.6C2016.91 2929.53 2028.11 2916.6 2035.84 2899.8H2079.44C2069.04 2926.47 2052.51 2947.13 2029.84 2961.8C2007.18 2976.2 1980.64 2983.4 1950.24 2983.4C1924.38 2983.4 1900.78 2977.4 1879.44 2965.4C1858.38 2953.13 1841.71 2936.2 1829.44 2914.6C1817.18 2893 1811.04 2868.6 1811.04 2841.4Z" fill="white"/>
</svg>
