<svg width="1920" height="6108" viewBox="0 0 1920 6108" fill="none" xmlns="http://www.w3.org/2000/svg">
<g filter="url(#filter0_d_149_16)">
<circle cx="960.5" cy="2471.5" r="2170.5" fill="url(#paint0_linear_149_16)" shape-rendering="crispEdges"/>
</g>
<g filter="url(#filter1_i_149_16)">
<path d="M2310 1209.3C2310 1621.3 2747.59 2309.5 1965 2309.5C1521.29 2309.5 350.763 3088.1 -133.868 2819.8C-503.997 2614.89 -504.998 1823.2 -504.998 1644.8C-504.998 1395.29 -378.335 1017.73 -20.998 882.298C211.73 794.091 592.5 1209.3 975.502 1209.3C1758.09 1209.3 2310 797.294 2310 1209.3Z" fill="url(#paint1_linear_149_16)"/>
</g>
<g filter="url(#filter2_i_149_16)">
<path d="M2160.1 3177.5C2160.1 3670.02 3235.63 4584.23 2295.1 4584.23C1761.84 4584.23 355.074 5514.99 -227.366 5194.25C-672.195 4949.3 -673.398 4002.91 -673.398 3789.64C-673.398 3491.37 -757.6 2387 -343.5 2528C70.6003 2669 550.07 2246 1490.6 2246C2431.13 2246 2160.1 2684.98 2160.1 3177.5Z" fill="url(#paint2_linear_149_16)"/>
</g>
<g filter="url(#filter3_i_149_16)">
<path d="M2639 4106C2639 4414.95 6356.23 7868 4940.86 7868C4138.38 7868 48.0416 6749.69 -828.448 6485.96C-1497.85 6284.53 -1703.8 4826.17 -1703.8 4650.8C-1703.8 4405.54 -1850.07 4710.13 -1203.8 4577C-1203.8 4298.55 -628.095 3243 424.304 3243C1476.7 3243 2639 3797.05 2639 4106Z" fill="url(#paint3_linear_149_16)"/>
</g>
<defs>
<filter id="filter0_d_149_16" x="-1515" y="0" width="4951" height="4951" filterUnits="userSpaceOnUse" color-interpolation-filters="sRGB">
<feFlood flood-opacity="0" result="BackgroundImageFix"/>
<feColorMatrix in="SourceAlpha" type="matrix" values="0 0 0 0 0 0 0 0 0 0 0 0 0 0 0 0 0 0 127 0" result="hardAlpha"/>
<feMorphology radius="61" operator="dilate" in="SourceAlpha" result="effect1_dropShadow_149_16"/>
<feOffset dy="4"/>
<feGaussianBlur stdDeviation="122"/>
<feComposite in2="hardAlpha" operator="out"/>
<feColorMatrix type="matrix" values="0 0 0 0 0 0 0 0 0 0 0 0 0 0 0 0 0 0 0.25 0"/>
<feBlend mode="normal" in2="BackgroundImageFix" result="effect1_dropShadow_149_16"/>
<feBlend mode="normal" in="SourceGraphic" in2="effect1_dropShadow_149_16" result="shape"/>
</filter>
<filter id="filter1_i_149_16" x="-504.998" y="870" width="2936.96" height="2010.05" filterUnits="userSpaceOnUse" color-interpolation-filters="sRGB">
<feFlood flood-opacity="0" result="BackgroundImageFix"/>
<feBlend mode="normal" in="SourceGraphic" in2="BackgroundImageFix" result="shape"/>
<feColorMatrix in="SourceAlpha" type="matrix" values="0 0 0 0 0 0 0 0 0 0 0 0 0 0 0 0 0 0 127 0" result="hardAlpha"/>
<feOffset dy="4"/>
<feGaussianBlur stdDeviation="7"/>
<feComposite in2="hardAlpha" operator="arithmetic" k2="-1" k3="1"/>
<feColorMatrix type="matrix" values="0 0 0 0 0 0 0 0 0 0 0 0 0 0 0 0 0 0 0.25 0"/>
<feBlend mode="normal" in2="shape" result="effect1_innerShadow_149_16"/>
</filter>
<filter id="filter2_i_149_16" x="-680.436" y="2246" width="3361.21" height="3021.5" filterUnits="userSpaceOnUse" color-interpolation-filters="sRGB">
<feFlood flood-opacity="0" result="BackgroundImageFix"/>
<feBlend mode="normal" in="SourceGraphic" in2="BackgroundImageFix" result="shape"/>
<feColorMatrix in="SourceAlpha" type="matrix" values="0 0 0 0 0 0 0 0 0 0 0 0 0 0 0 0 0 0 127 0" result="hardAlpha"/>
<feOffset dy="6"/>
<feGaussianBlur stdDeviation="20"/>
<feComposite in2="hardAlpha" operator="arithmetic" k2="-1" k3="1"/>
<feColorMatrix type="matrix" values="0 0 0 0 0 0 0 0 0 0 0 0 0 0 0 0 0 0 0.25 0"/>
<feBlend mode="normal" in2="shape" result="effect1_innerShadow_149_16"/>
</filter>
<filter id="filter3_i_149_16" x="-1718" y="3243" width="6980.31" height="4631" filterUnits="userSpaceOnUse" color-interpolation-filters="sRGB">
<feFlood flood-opacity="0" result="BackgroundImageFix"/>
<feBlend mode="normal" in="SourceGraphic" in2="BackgroundImageFix" result="shape"/>
<feColorMatrix in="SourceAlpha" type="matrix" values="0 0 0 0 0 0 0 0 0 0 0 0 0 0 0 0 0 0 127 0" result="hardAlpha"/>
<feOffset dy="6"/>
<feGaussianBlur stdDeviation="20"/>
<feComposite in2="hardAlpha" operator="arithmetic" k2="-1" k3="1"/>
<feColorMatrix type="matrix" values="0 0 0 0 0 0 0 0 0 0 0 0 0 0 0 0 0 0 0.25 0"/>
<feBlend mode="normal" in2="shape" result="effect1_innerShadow_149_16"/>
</filter>
<linearGradient id="paint0_linear_149_16" x1="431" y1="245" x2="2355.5" y2="2232.5" gradientUnits="userSpaceOnUse">
<stop stop-color="#122156"/>
<stop offset="1" stop-color="#274098" stop-opacity="0.68"/>
</linearGradient>
<linearGradient id="paint1_linear_149_16" x1="322.362" y1="1028.52" x2="1423.85" y2="3969.2" gradientUnits="userSpaceOnUse">
<stop stop-color="#3423A0"/>
<stop offset="1" stop-color="#140E37"/>
</linearGradient>
<linearGradient id="paint2_linear_149_16" x1="483.664" y1="3237.11" x2="2934.13" y2="5022.36" gradientUnits="userSpaceOnUse">
<stop stop-color="#304CAE"/>
<stop offset="1" stop-color="#401D88"/>
</linearGradient>
<linearGradient id="paint3_linear_149_16" x1="-429.562" y1="3758.28" x2="94.4107" y2="6268.79" gradientUnits="userSpaceOnUse">
<stop stop-color="#3D7AC2"/>
<stop offset="1" stop-color="#345C82"/>
</linearGradient>
</defs>
</svg>
